<svg width="1200" height="675" viewBox="0 0 1200 675" fill="none" xmlns="http://www.w3.org/2000/svg">
  <rect width="1200" height="675" fill="#05070d"/>
  <rect x="72" y="66" width="1056" height="543" rx="18" fill="#0b1020" stroke="#1f2a44" stroke-width="2"/>
  <rect x="72" y="66" width="1056" height="64" rx="18" fill="#10182d"/>
  <circle cx="111" cy="98" r="8" fill="#ef4444"/>
  <circle cx="139" cy="98" r="8" fill="#f59e0b"/>
  <circle cx="167" cy="98" r="8" fill="#22c55e"/>
  <text x="204" y="106" fill="#94a3b8" font-family="Fira Code, monospace" font-size="24">PDFChat / document-rag</text>
  <rect x="116" y="174" width="350" height="370" rx="14" fill="#121a31" stroke="#263653"/>
  <rect x="150" y="214" width="96" height="124" rx="8" fill="#f8fafc"/>
  <path d="M218 214v36h28" fill="#e2e8f0"/>
  <rect x="166" y="366" width="254" height="12" rx="6" fill="#334155"/>
  <rect x="166" y="398" width="218" height="12" rx="6" fill="#334155"/>
  <rect x="166" y="430" width="246" height="12" rx="6" fill="#334155"/>
  <rect x="166" y="462" width="184" height="12" rx="6" fill="#334155"/>
  <text x="150" y="518" fill="#38bdf8" font-family="Fira Code, monospace" font-size="22">upload.pdf</text>
  <path d="M520 338h130" stroke="#38bdf8" stroke-width="4" stroke-linecap="round"/>
  <path d="M632 318l28 20-28 20" stroke="#38bdf8" stroke-width="4" stroke-linecap="round" stroke-linejoin="round"/>
  <rect x="704" y="174" width="380" height="370" rx="14" fill="#0f172a" stroke="#263653"/>
  <rect x="740" y="212" width="218" height="46" rx="10" fill="#172554" stroke="#2563eb"/>
  <text x="762" y="243" fill="#dbeafe" font-family="Fira Code, monospace" font-size="20">Ask your PDF</text>
  <rect x="740" y="286" width="292" height="54" rx="14" fill="#111827" stroke="#334155"/>
  <text x="766" y="320" fill="#cbd5e1" font-family="Inter, sans-serif" font-size="20">Summarize this paper.</text>
  <rect x="793" y="370" width="239" height="84" rx="14" fill="#0e7490" fill-opacity="0.18" stroke="#0891b2"/>
  <text x="819" y="405" fill="#e0f2fe" font-family="Inter, sans-serif" font-size="20">Context-aware answer</text>
  <text x="819" y="435" fill="#93c5fd" font-family="Fira Code, monospace" font-size="17">Gemini + ChromaDB</text>
  <rect x="740" y="482" width="160" height="34" rx="17" fill="#12213a" stroke="#1d4ed8"/>
  <text x="762" y="505" fill="#93c5fd" font-family="Fira Code, monospace" font-size="16">Tavily web</text>
  <rect x="914" y="482" width="118" height="34" rx="17" fill="#123327" stroke="#16a34a"/>
  <text x="936" y="505" fill="#bbf7d0" font-family="Fira Code, monospace" font-size="16">RAG</text>
  <circle cx="596" cy="336" r="52" fill="#0f172a" stroke="#38bdf8" stroke-width="3"/>
  <path d="M571 336h50M596 311v50" stroke="#38bdf8" stroke-width="4" stroke-linecap="round"/>
  <text x="96" y="632" fill="#64748b" font-family="Fira Code, monospace" font-size="18">FastAPI - LangChain - ChromaDB - Next.js - Gemini</text>
</svg>
